<svg width="20" height="20" viewBox="0 0 20 20" fill="none" xmlns="http://www.w3.org/2000/svg">
<path d="M20 10C20 11.0734 18.9047 11.9877 18.6095 12.922C18.3143 13.8563 18.6762 15.2974 18.0857 16.1323C17.4952 16.9672 16.1238 17.0268 15.3143 17.643C14.5048 18.2592 14.0476 19.6309 13.0952 19.929C12.1429 20.2272 11.0286 19.442 10 19.442C8.97143 19.442 7.8381 20.2372 6.90476 19.929C5.97143 19.6209 5.4857 18.2493 4.6857 17.643C3.8857 17.0367 2.49524 16.9771 1.90476 16.1323C1.31429 15.2875 1.70478 13.9258 1.3905 12.922C1.07621 11.9182 0 11.0734 0 10C0 8.92659 1.09526 8.01226 1.3905 7.07799C1.68574 6.14373 1.32382 4.70259 1.9143 3.86772C2.50477 3.03284 3.87617 2.97319 4.6857 2.35697C5.49522 1.74075 5.95238 0.369123 6.90476 0.0709533C7.85714 -0.227217 8.97143 0.557954 10 0.557954C11.0286 0.557954 12.1619 -0.237156 13.0952 0.0709533C14.0286 0.379062 14.5143 1.75069 15.3143 2.35697C16.1143 2.96325 17.5048 3.0229 18.0952 3.86772C18.6857 4.71253 18.2952 6.07415 18.6095 7.07799C18.9238 8.08183 20 8.92659 20 10Z" fill="#FF7171"/>
<path d="M4.45767 9.54021C4.20383 9.28637 3.79227 9.28637 3.53843 9.54021C3.28459 9.79405 3.28459 10.2056 3.53843 10.4594L4.45767 9.54021ZM6.99836 13.0001L6.53875 13.4598C6.66064 13.5817 6.82597 13.6501 6.99836 13.6501C7.17076 13.6501 7.33609 13.5817 7.45798 13.4598L6.99836 13.0001ZM13.4586 7.45913C13.7125 7.20529 13.7125 6.79373 13.4586 6.53989C13.2048 6.28605 12.7932 6.28605 12.5394 6.53989L13.4586 7.45913ZM7.45769 9.54021C7.20385 9.28637 6.79229 9.28637 6.53845 9.54021C6.28461 9.79405 6.28461 10.2056 6.53845 10.4594L7.45769 9.54021ZM9.99839 13.0001L9.53877 13.4598C9.66067 13.5817 9.826 13.6501 9.99839 13.6501C10.1708 13.6501 10.3361 13.5817 10.458 13.4598L9.99839 13.0001ZM16.4586 7.45913C16.7125 7.20529 16.7125 6.79373 16.4586 6.53989C16.2048 6.28605 15.7932 6.28605 15.5394 6.53989L16.4586 7.45913ZM3.53843 10.4594L6.53875 13.4598L7.45798 12.5405L4.45767 9.54021L3.53843 10.4594ZM7.45798 13.4598L13.4586 7.45913L12.5394 6.53989L6.53875 12.5405L7.45798 13.4598ZM6.53845 10.4594L9.53877 13.4598L10.458 12.5405L7.45769 9.54021L6.53845 10.4594ZM10.458 13.4598L16.4586 7.45913L15.5394 6.53989L9.53877 12.5405L10.458 13.4598Z" fill="white"/>
</svg>
