<svg width="20" height="20" viewBox="0 0 20 20" fill="none" xmlns="http://www.w3.org/2000/svg">
<path d="M4.6059 13.9185C5.54952 15.2173 6.9301 16.1319 8.49401 16.4944C10.0579 16.8569 11.7001 16.6429 13.1189 15.8917C14.5377 15.1405 15.6377 13.9026 16.2169 12.4053C16.7962 10.9081 16.8157 9.25214 16.2719 7.74168C15.7281 6.23122 14.6575 4.96771 13.2568 4.18329C11.8561 3.39887 10.2195 3.14623 8.64744 3.47178C7.07542 3.79733 5.67367 4.6792 4.69972 5.95538C3.72577 7.23156 3.24504 8.81633 3.34584 10.4185M3.34584 10.4185L2.09584 9.16853M3.34584 10.4185L4.59584 9.16853" stroke="#FF7171" stroke-width="1.5" stroke-linecap="round" stroke-linejoin="round"/>
<path d="M10 6.66675V10.0001L12.5 12.5001" stroke="#FF7171" stroke-width="1.5" stroke-linecap="round" stroke-linejoin="round"/>
</svg>
