<svg width="24" height="24" viewBox="0 0 24 24" fill="none" xmlns="http://www.w3.org/2000/svg">
<path d="M23.9992 21.6C23.9992 22.9255 22.9334 24 21.6187 24H5.55041C4.23571 24 3.16992 22.9255 3.16992 21.6V2.4C3.16992 1.07452 4.2357 0 5.55041 0H18.2828L23.9992 5.71429V21.6Z" fill="#D1D5DB"/>
<path d="M0 3.47171C0 2.8048 0.51899 2.26416 1.1592 2.26416H13.3307C13.971 2.26416 14.4899 2.8048 14.4899 3.47171V8.3019C14.4899 8.96881 13.971 9.50944 13.3307 9.50944H1.1592C0.518989 9.50944 0 8.96881 0 8.3019V3.47171Z" fill="#FF7171"/>
<path fill-rule="evenodd" clip-rule="evenodd" d="M16.302 19.4717C16.8021 19.4717 17.2076 19.0662 17.2076 18.5661C17.2076 18.0659 16.8021 17.6604 16.302 17.6604H7.69863C7.19845 17.6604 6.79297 18.0659 6.79297 18.5661C6.79297 19.0662 7.19845 19.4717 7.69863 19.4717H16.302Z" fill="white"/>
<path fill-rule="evenodd" clip-rule="evenodd" d="M12.6795 13.1321C13.1797 13.1321 13.5851 12.7266 13.5851 12.2265C13.5851 11.7263 13.1797 11.3208 12.6795 11.3208H7.69863C7.19845 11.3208 6.79297 11.7263 6.79297 12.2265C6.79297 12.7266 7.19845 13.1321 7.69863 13.1321H12.6795Z" fill="white"/>
<path fill-rule="evenodd" clip-rule="evenodd" d="M10.8674 6.79228C11.3675 6.79228 11.773 6.3868 11.773 5.88662C11.773 5.38644 11.3675 4.98096 10.8674 4.98096H3.62246C3.12227 4.98096 2.7168 5.38644 2.7168 5.88662C2.7168 6.3868 3.12227 6.79228 3.62246 6.79228H10.8674Z" fill="white"/>
<path fill-rule="evenodd" clip-rule="evenodd" d="M19.4716 16.302C19.9718 16.302 20.3773 15.8966 20.3773 15.3964C20.3773 14.8962 19.9718 14.4907 19.4716 14.4907H7.69863C7.19845 14.4907 6.79297 14.8962 6.79297 15.3964C6.79297 15.8966 7.19845 16.302 7.69863 16.302H19.4716Z" fill="white"/>
<path d="M23.5467 6.33967H18.8375C18.1873 6.33967 17.6602 5.81255 17.6602 5.16232V0.452881L23.5467 6.33967Z" fill="#9CA3AF"/>
</svg>
