<svg width="20" height="20" viewBox="0 0 20 20" fill="none" xmlns="http://www.w3.org/2000/svg">
<path d="M20 10C20 11.0734 18.9047 11.9877 18.6095 12.922C18.3143 13.8563 18.6762 15.2974 18.0857 16.1323C17.4952 16.9672 16.1238 17.0268 15.3143 17.643C14.5048 18.2592 14.0476 19.6309 13.0952 19.929C12.1429 20.2272 11.0286 19.442 10 19.442C8.97143 19.442 7.8381 20.2372 6.90476 19.929C5.97143 19.6209 5.4857 18.2493 4.6857 17.643C3.8857 17.0367 2.49524 16.9771 1.90476 16.1323C1.31429 15.2875 1.70478 13.9258 1.3905 12.922C1.07621 11.9182 0 11.0734 0 10C0 8.92659 1.09526 8.01226 1.3905 7.07799C1.68574 6.14373 1.32382 4.70259 1.9143 3.86772C2.50477 3.03284 3.87617 2.97319 4.6857 2.35697C5.49522 1.74075 5.95238 0.369123 6.90476 0.0709533C7.85714 -0.227217 8.97143 0.557954 10 0.557954C11.0286 0.557954 12.1619 -0.237156 13.0952 0.0709533C14.0286 0.379062 14.5143 1.75069 15.3143 2.35697C16.1143 2.96325 17.5048 3.0229 18.0952 3.86772C18.6857 4.71253 18.2952 6.07415 18.6095 7.07799C18.9238 8.08183 20 8.92659 20 10Z" fill="#32B158"/>
<path d="M6.70711 9.29272C6.31658 8.9022 5.68342 8.9022 5.29289 9.29272C4.90237 9.68325 4.90237 10.3164 5.29289 10.7069L6.70711 9.29272ZM9.00032 13.0001L8.29321 13.7073C8.48075 13.8948 8.73511 14.0002 9.00034 14.0001C9.26556 14.0001 9.51992 13.8948 9.70745 13.7072L9.00032 13.0001ZM15.2071 8.20708C15.5976 7.81654 15.5976 7.18337 15.2071 6.79286C14.8165 6.40236 14.1834 6.40238 13.7929 6.79292L15.2071 8.20708ZM5.29289 10.7069L8.29321 13.7073L9.70742 12.293L6.70711 9.29272L5.29289 10.7069ZM9.70745 13.7072L15.2071 8.20708L13.7929 6.79292L8.29318 12.2931L9.70745 13.7072Z" fill="white"/>
</svg>
